<svg xmlns="http://www.w3.org/2000/svg" viewBox="0 0 104.92 95"><defs><style>.a{fill:#7dc8ff;}.b{fill:#2d74a8;}.c{fill:#4d4d4d;}.d{fill:#ff9187;}.d,.e,.g{stroke:#000;}.d,.e{stroke-miterlimit:10;}.e{fill:none;}.f{fill:#ccc;}.g{fill:#339982;stroke-linejoin:round;stroke-width:0.75px;}</style></defs><title>on-time</title><path class="a" d="M5,82.25a4.5,4.5,0,0,1-4.5-4.5V15.31H91V77.75a4.5,4.5,0,0,1-4.5,4.5Z"/><path d="M90.46,15.81V77.75a4,4,0,0,1-4,4H5a4,4,0,0,1-4-4V15.81H90.46m1-1H0V77.75a5,5,0,0,0,5,5H86.46a5,5,0,0,0,5-5V14.81Z"/><path class="b" d="M.5,16.78V4.61A1.5,1.5,0,0,1,2,3.11H89.46A1.5,1.5,0,0,1,91,4.61V16.78Z"/><path d="M89.46,3.61a1,1,0,0,1,1,1V16.28H1V4.61a1,1,0,0,1,1-1H89.46m0-1H2a2,2,0,0,0-2,2V17.28H91.46V4.61a2,2,0,0,0-2-2Z"/><rect class="c" x="15.74" y="0.5" width="7.71" height="10.25" rx="1.5" ry="1.5"/><path d="M22,1a1,1,0,0,1,1,1V9.25a1,1,0,0,1-1,1H17.24a1,1,0,0,1-1-1V2a1,1,0,0,1,1-1H22m0-1H17.24a2,2,0,0,0-2,2V9.25a2,2,0,0,0,2,2H22a2,2,0,0,0,2-2V2a2,2,0,0,0-2-2Z"/><rect class="c" x="68.01" y="0.5" width="7.71" height="10.25" rx="1.5" ry="1.5"/><path d="M74.22,1a1,1,0,0,1,1,1V9.25a1,1,0,0,1-1,1H69.51a1,1,0,0,1-1-1V2a1,1,0,0,1,1-1h4.71m0-1H69.51a2,2,0,0,0-2,2V9.25a2,2,0,0,0,2,2h4.71a2,2,0,0,0,2-2V2a2,2,0,0,0-2-2Z"/><rect class="d" x="3.97" y="19.93" width="82.75" height="59.23" rx="2" ry="2"/><line class="e" x1="20.52" y1="19.93" x2="20.52" y2="79.16"/><line class="e" x1="37.07" y1="19.93" x2="37.07" y2="79.16"/><line class="e" x1="53.62" y1="19.93" x2="53.62" y2="79.16"/><line class="e" x1="70.17" y1="19.93" x2="70.17" y2="79.16"/><line class="e" x1="3.97" y1="34.73" x2="86.72" y2="34.73"/><line class="e" x1="3.97" y1="49.54" x2="86.72" y2="49.54"/><line class="e" x1="3.97" y1="64.35" x2="86.72" y2="64.35"/><path class="c" d="M69.67,94.75A29.21,29.21,0,1,1,98.87,65.54,29.24,29.24,0,0,1,69.67,94.75Z"/><path d="M69.67,36.58a29,29,0,1,1-29,29,29,29,0,0,1,29-29m0-.5A29.46,29.46,0,1,0,99.12,65.54,29.46,29.46,0,0,0,69.67,36.08Z"/><path class="f" d="M69.67,93.39A27.84,27.84,0,1,1,97.51,65.54,27.88,27.88,0,0,1,69.67,93.39Z"/><path d="M69.67,38.2A27.34,27.34,0,1,1,42.32,65.54,27.38,27.38,0,0,1,69.67,38.2m0-1A28.34,28.34,0,1,0,98,65.54,28.34,28.34,0,0,0,69.67,37.2Z"/><path class="g" d="M45.73,58.8s6-6.33,6-6.29C56,57.09,62.28,65.08,68,72.67c0,0,11.5-20.91,36.5-24.89,0,0-27.3,11-35.88,42.15A236.34,236.34,0,0,0,45.73,58.8Z"/></svg>