<svg xmlns="http://www.w3.org/2000/svg" viewBox="0 0 105 95.46"><defs><style>.a{fill:#7dc8ff;}.b,.c{fill:#ffd845;}.b,.e{stroke:#000;stroke-linejoin:round;stroke-width:0.75px;}.d{fill:#ccc;}.e{fill:#339982;}</style></defs><title>quality</title><rect class="a" x="0.38" y="48.15" width="104.25" height="24.97" rx="7.63" ry="7.63"/><path d="M97,48.53a7.26,7.26,0,0,1,7.25,7.25V65.5A7.26,7.26,0,0,1,97,72.75H8A7.26,7.26,0,0,1,.75,65.5V55.78A7.26,7.26,0,0,1,8,48.53H97m0-.75H8a8,8,0,0,0-8,8V65.5a8,8,0,0,0,8,8H97a8,8,0,0,0,8-8V55.78a8,8,0,0,0-8-8Z"/><path class="b" d="M29,65.79,3.91,83s21.75-2.81,23.5-4c0,0-7.31,15-8.56,15.84s9.81-5.31,13.75-8.62S45.6,75,46.48,73.92,29,65.79,29,65.79Z"/><path class="b" d="M76.43,65.88l25.12,17.25s-21.75-2.81-23.5-4c0,0,7.31,15,8.56,15.84s-9.81-5.31-13.75-8.62S59.87,75.06,59,74,76.43,65.88,76.43,65.88Z"/><path class="c" d="M37.92,81.15c-2.75,0-6.45-1.17-8.19-3.41a5.14,5.14,0,0,1-.9-3.51,12.09,12.09,0,0,0-1.21-5.68,10.36,10.36,0,0,0-4.22-5,5.88,5.88,0,0,0-2.94-.74c-.39,0-.78,0-1.17.06s-.75.06-1.15.06a5.86,5.86,0,0,1-2.48-.52c-2.41-1.06-5-3.81-4.85-6.39.09-2.19,2.06-3.8,3.79-5.21s3.15-2.56,2.77-4.09c-.21-.86-.86-1.21-1.76-1.69a13,13,0,0,1-3.53-2.61,8.59,8.59,0,0,1-2.56-3.82,7.37,7.37,0,0,1,1.87-6.79,6.61,6.61,0,0,1,4.09-1.71A6.7,6.7,0,0,0,20,28a8.33,8.33,0,0,0,1.89-5.26,7.07,7.07,0,0,0-1.13-3.91,6.25,6.25,0,0,1-1-3.26,7.66,7.66,0,0,1,3-6.06,7.48,7.48,0,0,1,4.65-1.17c.77,0,1.6,0,2.52.08,1.27.06,2.2.13,3,.19s1.42.11,2.06.11a14.46,14.46,0,0,0,2.41-.22A14.1,14.1,0,0,0,43,6.59a11.49,11.49,0,0,0,3-3,7.49,7.49,0,0,1,2.23-2.25A7,7,0,0,1,52,.38a10.66,10.66,0,0,1,5,1.22,7,7,0,0,1,2.46,2.09,23.66,23.66,0,0,0,2.37,2.52,13.75,13.75,0,0,0,7.31,2.52c.41,0,.78,0,1.13,0a12.68,12.68,0,0,0,3.64-.56,12.4,12.4,0,0,1,3.62-.55c.34,0,.7,0,1.09,0,1.15.08,4.66.34,6.53,3s1,6,.7,7a14.35,14.35,0,0,1-1.63,3.45,12.37,12.37,0,0,0-1.59,3.46c-.9,3.36,1,5.8,1.92,7,.16.2.29.37.37.5a7.44,7.44,0,0,0,2.59,2.57,8.72,8.72,0,0,1,2.67,2.53,13.07,13.07,0,0,1,2.06,8.07,10.15,10.15,0,0,1-2.88,6.1,6.83,6.83,0,0,1-3.05,1.78A11.21,11.21,0,0,0,83,54.73a15.74,15.74,0,0,0-5.52,8,11.92,11.92,0,0,0,0,6c.31,1.66.56,3-.23,4.28-2,3.28-6.84,4.31-8,4.4l-.62,0a11.76,11.76,0,0,1-5-1.39,18.78,18.78,0,0,0-6.37-1.87c-.34,0-.78-.06-1.32-.06a20.82,20.82,0,0,0-8,1.83,14.46,14.46,0,0,0-4.45,2.89,7.55,7.55,0,0,1-5.57,2.35Z"/><path d="M52,.75a10.27,10.27,0,0,1,4.81,1.17,6.66,6.66,0,0,1,2.35,2,24.07,24.07,0,0,0,2.4,2.55,14.16,14.16,0,0,0,7.54,2.61c.4,0,.79,0,1.16,0A13,13,0,0,0,74,8.55,12.09,12.09,0,0,1,77.53,8c.34,0,.7,0,1.07,0,1.11.08,4.48.32,6.25,2.79s.94,5.75.65,6.7a14.05,14.05,0,0,1-1.6,3.37,12.85,12.85,0,0,0-1.63,3.56c-.95,3.54,1,6.08,2,7.29.15.19.27.35.35.47a7.85,7.85,0,0,0,2.7,2.69,8.3,8.3,0,0,1,2.57,2.43,12.86,12.86,0,0,1,2,7.82A9.74,9.74,0,0,1,89.11,51a6.45,6.45,0,0,1-2.91,1.69,11.52,11.52,0,0,0-3.4,1.7,16.12,16.12,0,0,0-5.66,8.16,12.4,12.4,0,0,0,0,6.18c.3,1.58.53,2.83-.18,4C74.8,76.35,69.25,77,69.19,77l-.59,0a11.49,11.49,0,0,1-4.81-1.36,19.09,19.09,0,0,0-6.49-1.91c-.3,0-.77-.06-1.35-.06a21.2,21.2,0,0,0-8.15,1.86,14.79,14.79,0,0,0-4.55,3,7.18,7.18,0,0,1-5.32,2.25c-2.59,0-6.24-1.14-7.9-3.26a4.79,4.79,0,0,1-.82-3.28A12.41,12.41,0,0,0,28,68.39a10.68,10.68,0,0,0-4.38-5.17,6.25,6.25,0,0,0-3.12-.79c-.41,0-.81,0-1.19.06s-.74.06-1.12.06a5.51,5.51,0,0,1-2.33-.49c-2.3-1-4.73-3.61-4.63-6,.08-2,2-3.57,3.66-4.93s3.33-2.71,2.89-4.48c-.25-1-1-1.44-1.95-1.93a12.66,12.66,0,0,1-3.44-2.54,8.19,8.19,0,0,1-2.47-3.65,7,7,0,0,1,1.77-6.43,6.32,6.32,0,0,1,3.88-1.6,7.1,7.1,0,0,0,4.72-2.17,8.71,8.71,0,0,0,2-5.5,7.49,7.49,0,0,0-1.18-4.1,5.87,5.87,0,0,1-1-3.09,7.26,7.26,0,0,1,2.86-5.75,7.15,7.15,0,0,1,4.43-1.1c.76,0,1.61,0,2.5.08,1.26.06,2.19.13,2.94.19s1.44.11,2.09.11a14.8,14.8,0,0,0,2.47-.22,14.45,14.45,0,0,0,5.87-2,11.83,11.83,0,0,0,3.07-3.12,7.18,7.18,0,0,1,2.13-2.15A6.67,6.67,0,0,1,52,.75M52,0a7.4,7.4,0,0,0-4,1C45.52,2.63,45.93,4,42.81,6.29a13.69,13.69,0,0,1-5.56,1.88,14.08,14.08,0,0,1-2.35.21c-1.22,0-2.39-.18-5-.3C29,8,28.14,8,27.37,8A7.82,7.82,0,0,0,22.5,9.24a8,8,0,0,0-3.17,6.37c0,3.15,2.2,3.83,2.15,7.17a8,8,0,0,1-1.79,5c-2.55,2.87-5.8,1-8.57,3.74a7.77,7.77,0,0,0-2,7.15,8.88,8.88,0,0,0,2.65,4c2.87,3,4.84,2.68,5.2,4.12.69,2.78-6.4,4.75-6.57,9.2-.11,2.79,2.55,5.64,5.08,6.75a6.25,6.25,0,0,0,2.63.55c.8,0,1.54-.12,2.32-.12a5.52,5.52,0,0,1,2.76.7,10,10,0,0,1,4.06,4.84c2.2,4.55.21,6.77,2.15,9.26,1.74,2.24,5.48,3.55,8.49,3.55a8.13,8.13,0,0,0,1.91-.21c3.74-.91,3.68-3.13,8.25-5.06a20.11,20.11,0,0,1,7.86-1.8c.53,0,1,0,1.28.06,5.18.46,7.48,3.27,11.37,3.27l.65,0c.78-.06,6.16-.95,8.33-4.58,1.71-2.85-1.07-5.76.29-10.37A15.44,15.44,0,0,1,83.25,55c2.8-2,4.18-1.26,6.39-3.46a10.47,10.47,0,0,0,3-6.33,13.52,13.52,0,0,0-2.13-8.32c-2.25-3.11-3.41-2.21-5.25-5.08-.58-.91-3.25-3.41-2.25-7.17.76-2.85,2.25-3.76,3.22-6.9.28-.9,1.25-4.55-.76-7.35s-5.63-3-6.81-3.11c-.4,0-.77,0-1.12,0-3.2,0-4.21,1.12-7.26,1.12-.34,0-.71,0-1.1,0a13.56,13.56,0,0,1-7.08-2.42c-2.87-2.67-2.5-3.34-4.9-4.65A11.06,11.06,0,0,0,52,0Z"/><path class="d" d="M50.8,69.8A29.08,29.08,0,1,1,79.88,40.72,29.11,29.11,0,0,1,50.8,69.8Z"/><path d="M50.8,12A28.71,28.71,0,1,1,22.09,40.72,28.74,28.74,0,0,1,50.8,12m0-.75A29.46,29.46,0,1,0,80.26,40.72,29.46,29.46,0,0,0,50.8,11.26Z"/><path class="e" d="M28,28.73s7.16-7.57,7.2-7.53c5.1,5.48,12.6,15,19.5,24.12,0,0,13.76-25,43.68-29.78,0,0-32.67,13.18-42.93,50.44A282.82,282.82,0,0,0,28,28.73Z"/></svg>