<svg xmlns="http://www.w3.org/2000/svg" viewBox="0 0 105 95"><defs><style>.a{fill:#4d4d4d;}.b{fill:#7dc8ff;}.c{fill:#2d74a8;}.d{fill:#ffd845;}.e,.f{fill:#ff9187;}.f,.g,.h{stroke:#000;stroke-linejoin:round;}.f,.g{stroke-width:0.5px;}.g{fill:#ccc;}.h{fill:#339982;stroke-width:0.75px;}</style></defs><title>solutions</title><rect class="a" x="0.25" y="0.25" width="104.5" height="94.5" rx="3.75" ry="3.75"/><path d="M101,.5A3.5,3.5,0,0,1,104.5,4V91a3.5,3.5,0,0,1-3.5,3.5H4A3.5,3.5,0,0,1,.5,91V4A3.5,3.5,0,0,1,4,.5h97m0-.5H4A4,4,0,0,0,0,4V91a4,4,0,0,0,4,4h97a4,4,0,0,0,4-4V4a4,4,0,0,0-4-4Z"/><rect class="b" x="1.63" y="1.56" width="101.75" height="91.88" rx="2.75" ry="2.75"/><path d="M100.63,1.81a2.5,2.5,0,0,1,2.5,2.5V90.69a2.5,2.5,0,0,1-2.5,2.5H4.38a2.5,2.5,0,0,1-2.5-2.5V4.31a2.5,2.5,0,0,1,2.5-2.5h96.25m0-.5H4.38a3,3,0,0,0-3,3V90.69a3,3,0,0,0,3,3h96.25a3,3,0,0,0,3-3V4.31a3,3,0,0,0-3-3Z"/><path class="a" d="M10.13,93.56V69.81a.75.75,0,0,1,.75-.75h13a.75.75,0,0,1,.75.75V93.56Z"/><path d="M23.88,69.31a.5.5,0,0,1,.5.5v23.5h-14V69.81a.5.5,0,0,1,.5-.5h13m0-.5h-13a1,1,0,0,0-1,1v24h15v-24a1,1,0,0,0-1-1Z"/><path class="c" d="M32.13,93.56V57.81a.75.75,0,0,1,.75-.75h13a.75.75,0,0,1,.75.75V93.56Z"/><path d="M45.88,57.31a.5.5,0,0,1,.5.5v35.5h-14V57.81a.5.5,0,0,1,.5-.5h13m0-.5h-13a1,1,0,0,0-1,1v36h15v-36a1,1,0,0,0-1-1Z"/><path class="d" d="M56.13,93.56V39.81a.75.75,0,0,1,.75-.75h13a.75.75,0,0,1,.75.75V93.56Z"/><path d="M69.88,39.31a.5.5,0,0,1,.5.5v53.5h-14V39.81a.5.5,0,0,1,.5-.5h13m0-.5h-13a1,1,0,0,0-1,1v54h15v-54a1,1,0,0,0-1-1Z"/><path class="e" d="M78.13,93.56V19.81a.75.75,0,0,1,.75-.75h13a.75.75,0,0,1,.75.75V93.56Z"/><path d="M91.88,19.31a.5.5,0,0,1,.5.5v73.5h-14V19.81a.5.5,0,0,1,.5-.5h13m0-.5h-13a1,1,0,0,0-1,1v74h15v-74a1,1,0,0,0-1-1Z"/><path class="f" d="M9.88,66.92V55.6S42,40.53,81.74,8.06L75.15,5.87,89.9,4.17,84.23,15.71l-.34-5.5S55.92,41.09,9.88,66.92Z"/><circle class="g" cx="19.88" cy="18.81" r="14.75"/><path class="h" d="M8.38,14.56s3.19-3.37,3.21-3.36c2.27,2.45,5.62,6.71,8.69,10.75,0,0,6.13-11.16,19.47-13.28A35.47,35.47,0,0,0,20.61,31.17,126.09,126.09,0,0,0,8.38,14.56Z"/></svg>