<svg xmlns="http://www.w3.org/2000/svg" viewBox="0 0 105 95.08"><defs><style>.a{fill:#7dc8ff;}.b{fill:#4d4d4d;}.c{fill:#ccc;}.d{fill:#339982;stroke:#000;stroke-linejoin:round;stroke-width:0.75px;}</style></defs><title>wishes</title><path class="a" d="M32.25,94.58c-10.34,0-18.75-6.67-18.75-14.87a12.2,12.2,0,0,1,1.59-6l.23-.42-.42-.25a8.42,8.42,0,0,1-4.13-7.27,8.61,8.61,0,0,1,.06-1l0-.28-.22-.17C4,59.14.5,52.92.5,46.4c0-7.45,4.7-14.62,13.22-20.2L14,26l-.11-.36A8.75,8.75,0,0,1,13.5,23c0-6.2,6.62-11.24,14.75-11.24a18.38,18.38,0,0,1,7.34,1.5l.28.12.24-.19c3.17-2.54,8-4,13.14-4a25.29,25.29,0,0,1,7.08,1l.46.14.15-.46C58.71,4.43,65.78.5,73.75.5,83.26.5,91,5.88,91,12.5a8.87,8.87,0,0,1-1.37,4.67l-.34.56.63.18c9,2.65,14.58,7.65,14.58,13.05a9.21,9.21,0,0,1-2.29,5.86l-.21.26.16.29a19,19,0,0,1,2.35,9,19.87,19.87,0,0,1-4.05,11.74l-.17.24.13.27a14.19,14.19,0,0,1,1.35,6.1,13.13,13.13,0,0,1-3.2,8.88l-.18.2.06.26a11.26,11.26,0,0,1,.32,2.66c0,9.79-12.9,17.75-28.75,17.75-8.39,0-16.35-2.27-21.84-6.23L47.8,88l-.3.33C44,92.25,38.27,94.58,32.25,94.58Z"/><path d="M73.75,1C83,1,90.5,6.16,90.5,12.5a8.38,8.38,0,0,1-1.3,4.41L88.53,18l1.25.37C98.55,21,104,25.79,104,31a8.73,8.73,0,0,1-2.18,5.54l-.42.52.31.59A18.51,18.51,0,0,1,104,46.39a19.38,19.38,0,0,1-4,11.45l-.35.48.26.54a13.69,13.69,0,0,1,1.3,5.89,12.63,12.63,0,0,1-3.07,8.55l-.37.39.13.52a10.7,10.7,0,0,1,.31,2.54C98.25,86.26,85.58,94,70,94c-8.29,0-16.14-2.24-21.55-6.14l-.73-.52-.6.67c-3.43,3.81-9,6.08-14.88,6.08C22.19,94.08,14,87.64,14,79.72A11.7,11.7,0,0,1,15.53,74l.47-.85-.83-.5a7.92,7.92,0,0,1-3.89-6.84,8,8,0,0,1,.05-.9l.06-.55L11,64C4.44,58.85,1,52.76,1,46.39c0-7.28,4.62-14.3,13-19.78l.64-.42-.23-.72A8.24,8.24,0,0,1,14,23c0-5.92,6.39-10.74,14.25-10.74a17.88,17.88,0,0,1,7.14,1.46l.56.24.47-.38c3.08-2.47,7.76-3.89,12.83-3.89a24.78,24.78,0,0,1,6.94,1l.93.27.3-.92C59.12,4.78,66,1,73.75,1m0-1C65.32,0,58.28,4.14,56.47,9.69a25.87,25.87,0,0,0-7.22-1c-5.48,0-10.35,1.62-13.46,4.11a18.77,18.77,0,0,0-7.54-1.54C19.83,11.25,13,16.51,13,23a9.2,9.2,0,0,0,.45,2.78C5.09,31.24,0,38.47,0,46.39c0,6.89,3.85,13.25,10.34,18.39a8.92,8.92,0,0,0,4.31,8.71A12.74,12.74,0,0,0,13,79.72c0,8.49,8.62,15.37,19.25,15.37,6.44,0,12.12-2.53,15.62-6.41C53.23,92.55,61.15,95,70,95c16.15,0,29.25-8.17,29.25-18.25A11.66,11.66,0,0,0,98.91,74a13.62,13.62,0,0,0,3.34-9.22,14.65,14.65,0,0,0-1.4-6.32,20.44,20.44,0,0,0,4.15-12,19.5,19.5,0,0,0-2.4-9.25A9.74,9.74,0,0,0,105,31c0-5.83-6-10.91-14.94-13.53A9.4,9.4,0,0,0,91.5,12.5C91.5,5.6,83.55,0,73.75,0Z"/><path d="M73.78,31.32c0,9.59-7.69,15.91-19,18.81V62.49h-1.7V49.34c11.24-4.13,13.19-9.8,13.19-16.41,0-10.66-4.84-15.17-11.86-15.17-2.69,0-6.33.62-8.27,3.06a4.17,4.17,0,0,1,3.55,4.34A4.41,4.41,0,0,1,45,29.71a4.3,4.3,0,0,1-4.46-4.46c0-2.4,1.57-4.51,4-6.12S50.59,16.07,56,16.07C66.58,16.07,73.78,21.85,73.78,31.32ZM59.39,78.07A5.42,5.42,0,1,1,54,72.66,5.46,5.46,0,0,1,59.39,78.07Z"/><path d="M41.74,50.12c0,5.55-4.45,9.21-11,10.88v7.15h-1v-7.6c6.5-2.39,7.63-5.67,7.63-9.49,0-6.17-2.8-8.77-6.86-8.77-1.55,0-3.66.36-4.78,1.77a2.41,2.41,0,0,1,2.06,2.51,2.55,2.55,0,0,1-2.7,2.63,2.49,2.49,0,0,1-2.58-2.58,4.45,4.45,0,0,1,2.29-3.54,11.6,11.6,0,0,1,6.65-1.77C37.58,41.3,41.74,44.65,41.74,50.12Zm-8.32,27A3.13,3.13,0,1,1,30.29,74,3.16,3.16,0,0,1,33.42,77.17Z"/><path d="M91,47.26c0,4.95-4,8.21-9.81,9.71v6.38H80.3V56.56c5.8-2.13,6.8-5.06,6.8-8.47,0-5.5-2.5-7.83-6.12-7.83-1.39,0-3.26.32-4.27,1.58a2.15,2.15,0,0,1,1.83,2.24,2.28,2.28,0,0,1-2.41,2.35,2.22,2.22,0,0,1-2.3-2.3,4,4,0,0,1,2-3.16,10.34,10.34,0,0,1,5.93-1.58C87.27,39.39,91,42.38,91,47.26ZM83.56,71.39a2.79,2.79,0,1,1-2.79-2.79A2.82,2.82,0,0,1,83.56,71.39Z"/><path class="b" d="M18.51,36.81A18.26,18.26,0,1,1,36.76,18.55,18.28,18.28,0,0,1,18.51,36.81Z"/><path d="M18.51.54a18,18,0,1,1-18,18,18,18,0,0,1,18-18m0-.5A18.51,18.51,0,1,0,37,18.55,18.51,18.51,0,0,0,18.51,0Z"/><path class="c" d="M18.51,35.86A17.31,17.31,0,1,1,35.81,18.55,17.33,17.33,0,0,1,18.51,35.86Z"/><path d="M18.51,1.74A16.81,16.81,0,1,1,1.7,18.55,16.83,16.83,0,0,1,18.51,1.74m0-1A17.81,17.81,0,1,0,36.31,18.55,17.81,17.81,0,0,0,18.51.74Z"/><path class="d" d="M3.47,14.32s3.76-4,3.78-4c2.68,2.88,6.62,7.9,10.24,12.66,0,0,7.22-13.14,22.93-15.64A41.77,41.77,0,0,0,17.88,33.87,148.48,148.48,0,0,0,3.47,14.32Z"/></svg>