<svg xmlns="http://www.w3.org/2000/svg" viewBox="0 0 187.27 143.69"><defs><style>.a{fill:#2d74a8;}.b{fill:#fff;}.c{fill:#7dc8ff;}.d{fill:#ccc;}.e{fill:#212121;}</style></defs><title>CMS</title><path class="a" d="M11.07,89.26v26h.28c0,5.73,20.1,10.38,44.9,10.38s44.9-4.65,44.9-10.38a2.66,2.66,0,0,0-.28-1.13V89.5C90.59,94,74.45,96.87,56.25,96.87,37.71,96.87,21.32,93.87,11.07,89.26Z"/><path class="b" d="M100.87,50.51c7.26-3,11.62-6.85,11.62-11s-4.36-7.93-11.62-11V37.5c0,5.73-20.1,10.38-44.9,10.38s-44.9-4.65-44.9-10.38V28.79C4.15,31.8,0,35.51,0,39.53s4.15,7.74,11.07,10.74c10.25,4.45,26.64,7.34,45.18,7.34C74.45,57.62,90.59,54.83,100.87,50.51Z"/><path class="a" d="M56,47.87c24.8,0,44.9-4.65,44.9-10.38V10.38C100.87,4.65,80.77,0,56,0s-44.9,4.65-44.9,10.38V37.5C11.07,43.23,31.17,47.87,56,47.87ZM56,1.1c24.08,0,43.61,4.17,43.61,9.31S80.1,19.72,56,19.72,12.4,15.55,12.4,10.41,31.93,1.1,56,1.1Z"/><path class="b" d="M100.87,66.73v8.68c0,5.73-20.1,10.38-44.9,10.38s-44.9-4.65-44.9-10.38V67C4.15,70.09,0,73.94,0,78.12s4.15,8,11.07,11.14c10.25,4.61,26.64,7.62,45.18,7.62,18.21,0,34.34-2.9,44.62-7.37,7.26-3.16,11.62-7.1,11.62-11.39S108.13,69.89,100.87,66.73Z"/><path class="a" d="M56,85.79c24.8,0,44.9-4.65,44.9-10.38V50.51c-10.28,4.31-26.42,7.11-44.62,7.11-18.54,0-34.93-2.9-45.18-7.34V75.41C11.07,81.14,31.17,85.79,56,85.79Z"/><ellipse class="c" cx="56.01" cy="10.41" rx="43.61" ry="9.31"/><circle class="b" cx="124.71" cy="81.12" r="62.56"/><circle class="d" cx="124.98" cy="82.2" r="55.8"/><path class="b" d="M159.71,90.43l-4.65-1.9a30.7,30.7,0,0,0-.1-13.05l4.61-1.93-4.29-10.22-4.63,1.94a31.1,31.1,0,0,0-9.26-9.14l1.92-4.69-10.26-4.2-1.91,4.67a30.65,30.65,0,0,0-13.09.08l-2-4.76-10.22,4.29,2,4.77a31.09,31.09,0,0,0-9.13,9.2L94,63.56l-4.2,10.26,4.64,1.9a30.64,30.64,0,0,0,0,13.09l-4.67,2L94.12,101l4.66-2a31.09,31.09,0,0,0,9.31,9.24l-1.9,4.65,10.26,4.2,1.89-4.62a30.68,30.68,0,0,0,13.05-.06l1.9,4.52,10.22-4.29-1.9-4.52a31.09,31.09,0,0,0,9.25-9.36l4.65,1.9Z"/><path class="e" d="M112.41,74l-1.93,2.12a5.61,5.61,0,0,0-3.63-1.34c-2.7,0-4.8,1.88-4.8,6.9s2,6.87,4.85,6.87a6.58,6.58,0,0,0,4-1.56l1.76,2.15a8.49,8.49,0,0,1-5.9,2.25c-5.08,0-8.63-3.41-8.63-9.72S101.85,72,106.62,72A8.48,8.48,0,0,1,112.41,74Z"/><path class="e" d="M133.89,90.95h-3.66l-.51-7.76c-.17-2.74-.31-5.61-.26-7.57l-3.58,13.31h-3.55l-3.8-13.34a70.49,70.49,0,0,1-.11,7.7l-.48,7.65h-3.63l1.56-18.55h4.83l3.49,13,3.29-13h4.88Z"/><path class="e" d="M150,74.28l-1.84,2a6.81,6.81,0,0,0-4.4-1.58c-1.76,0-3,.75-3,2.2s.77,1.93,4,2.9c3.43,1,5.82,2.36,5.82,5.85,0,3.33-2.75,5.69-7.44,5.69A10.07,10.07,0,0,1,136,88.8l2-2a7.6,7.6,0,0,0,5,1.85c2.1,0,3.6-1,3.6-2.76,0-1.56-.82-2.25-3.89-3.14-4.12-1.21-5.9-2.76-5.9-5.58,0-3.09,2.81-5.13,6.67-5.13A9.12,9.12,0,0,1,150,74.28Z"/></svg>