<svg xmlns="http://www.w3.org/2000/svg" viewBox="0 0 170 138.03"><defs><style>.a{fill:#4d4d4d;}.b{fill:#fff;}.c,.l{fill:#7dc8ff;}.d,.n{fill:#ccc;}.e,.m{fill:#ff9187;}.f{fill:#212121;}.g,.i{fill:#339982;}.h,.k{fill:#ffd845;}.i,.j,.k,.l,.m,.n{stroke:#666;stroke-miterlimit:10;stroke-width:0.05px;}.j{fill:#2d74a8;}.o{fill:#666;}</style></defs><title>Лого</title><path class="a" d="M1,0H170a0,0,0,0,1,0,0V138a0,0,0,0,1,0,0H0a0,0,0,0,1,0,0V1A1,1,0,0,1,1,0Z"/><rect class="b" x="8.09" y="8.09" width="161.91" height="129.94"/><rect class="c" x="16.86" y="53.94" width="153.14" height="32.7"/><rect class="d" x="90.35" y="12.14" width="79.65" height="35.73"/><rect class="e" x="16.86" y="12.14" width="66.75" height="35.73"/><rect class="f" x="16.86" y="92.37" width="153.14" height="22.92"/><rect class="g" x="16.86" y="130.13" width="153.14" height="7.01"/><rect class="h" x="16.86" y="119.34" width="153.14" height="6.74"/><path class="i" d="M107.84,16.52l-12.37-4.3.48-1.37,12.37,4.3,1.29-3.71a2.47,2.47,0,0,0-1.52-3.14l-7.49-2.6-.22-.08a2.47,2.47,0,0,0-3.15,1.52L77.12,65l12.37,4.3Z"/><polygon class="j" points="77.12 65.03 78.99 79.81 89.49 69.33 77.12 65.03"/><path class="k" d="M108.15,8.33A4.48,4.48,0,0,0,107,6.81l-4.71-1.69a3.43,3.43,0,0,0-1.82.52l.17.06,7.49,2.6Z"/><polygon class="k" points="95.46 12.22 107.84 16.52 107.84 16.52 108.2 17.77 103.51 32.27 101.84 34.3 101.03 36.63 103.4 35.7 109.4 16.88 108.31 15.15 108.31 15.15 95.94 10.86 95.46 12.22"/><polygon class="l" points="154.47 11.82 150 6.8 150.01 6.79 149.99 6.77 102.33 49.11 106.68 54 154.47 11.82"/><path class="m" d="M163,8.59l-4.58-5.16a3.09,3.09,0,0,0-4.36-.26L150,6.79h0l4.47,5,4.22,4.75h0L162.77,13A3.09,3.09,0,0,0,163,8.59Z"/><polygon class="n" points="106.68 54 102.33 49.11 96.54 62.88 111.04 58.9 106.68 54 106.68 54"/><polygon class="j" points="106.68 54 106.68 54 111.04 58.9 158.69 16.57 154.47 11.82 106.68 54"/><path class="o" d="M22.35,36.12V16.48l2.84-.34V36.05c0,.87.28,1.3,1,1.3a2.78,2.78,0,0,0,1.05-.19l.74,2a4.77,4.77,0,0,1-2.26.56C23.67,39.7,22.35,38.43,22.35,36.12Z"/><path class="o" d="M44.6,31.17c0,5-2.66,8.53-7.27,8.53s-7.26-3.34-7.26-8.5,2.66-8.53,7.3-8.53S44.6,26,44.6,31.17Zm-11.47,0c0,4.24,1.48,6.21,4.2,6.21s4.2-2,4.2-6.24S40.06,25,37.37,25,33.13,26.93,33.13,31.2Z"/><path class="o" d="M62.44,23.78a15.87,15.87,0,0,1-4.76.49,4.29,4.29,0,0,1,2.88,4.11c0,3.22-2.32,5.53-6.21,5.53a6.59,6.59,0,0,1-2.07-.31,2,2,0,0,0-.8,1.52c0,.74.46,1.33,2.13,1.33h2.6c3.34,0,5.56,1.92,5.56,4.51,0,3.15-2.6,4.95-7.64,4.95-5.32,0-7-1.64-7-4.95H49.7c0,1.85.83,2.72,4.42,2.72s4.76-.9,4.76-2.54-1.24-2.32-3.28-2.32H53c-2.91,0-4.2-1.45-4.2-3.09a3.54,3.54,0,0,1,1.79-2.87,4.66,4.66,0,0,1-2.75-4.51c0-3.34,2.69-5.69,6.28-5.69a14,14,0,0,0,7.45-1.45ZM50.78,28.36C50.78,30.52,52,32,54.21,32s3.43-1.36,3.43-3.71-1.17-3.62-3.49-3.62S50.78,26.22,50.78,28.36Z"/><path class="o" d="M78.42,31.17c0,5-2.66,8.53-7.27,8.53s-7.26-3.34-7.26-8.5,2.66-8.53,7.3-8.53S78.42,26,78.42,31.17Zm-11.47,0c0,4.24,1.48,6.21,4.2,6.21s4.2-2,4.2-6.24S73.87,25,71.18,25,66.95,26.93,66.95,31.2Z"/></svg>