<svg xmlns="http://www.w3.org/2000/svg" viewBox="0 0 170.01 138.05"><defs><style>.a{fill:#ccc;}.b{fill:none;stroke:#fff;stroke-width:0.5px;}.b,.d,.e,.f,.g{stroke-miterlimit:10;}.c,.f{fill:#4d4d4d;}.d,.k{fill:#7dc8ff;}.d,.e,.f,.g{stroke:#666;stroke-width:0.05px;}.e{fill:#ff9187;}.g,.j{fill:#2d74a8;}.h{fill:#333;}.i{fill:#fff;}.k{opacity:0.65;}</style></defs><title>Правки</title><rect class="a" x="25.29" width="129.31" height="138.05" rx="2" ry="2"/><rect class="b" x="30.94" y="4.5" width="117.59" height="128.02" rx="1" ry="1"/><rect class="c" x="46.37" y="18.46" width="95.8" height="5.91"/><rect class="c" x="46.37" y="27.28" width="95.8" height="5.91"/><rect class="c" x="46.37" y="36.48" width="95.8" height="5.91"/><rect class="c" x="46.37" y="45.12" width="95.8" height="5.91"/><rect class="c" x="46.37" y="53.74" width="47.9" height="5.91"/><rect class="c" x="46.37" y="80.49" width="95.8" height="5.91"/><rect class="c" x="46.37" y="89.7" width="95.8" height="5.91"/><rect class="c" x="46.37" y="98.44" width="95.8" height="5.91"/><rect class="c" x="46.37" y="107.25" width="95.8" height="5.91"/><rect class="c" x="46.37" y="116.07" width="81.21" height="5.91"/><polygon class="d" points="162.5 36.48 155.96 34.98 155.96 34.97 155.94 34.96 141.68 96.97 148.04 98.44 162.5 36.48"/><path class="e" d="M167.59,28.9l-6.71-1.54a3.08,3.08,0,0,0-3.7,2.32L156,35h0l6.54,1.5,6.18,1.42h0l1.22-5.31A3.09,3.09,0,0,0,167.59,28.9Z"/><polygon class="f" points="148.04 98.44 141.68 96.97 145.03 111.92 154.43 99.9 148.04 98.44 148.04 98.44"/><polygon class="g" points="148.04 98.44 148.04 98.44 154.43 99.9 168.68 37.9 162.5 36.48 148.04 98.44"/><path class="h" d="M51.2,10.62A34.49,34.49,0,1,0,85.7,45.12,34.49,34.49,0,0,0,51.2,10.62Zm0,62.66A28.17,28.17,0,1,1,79.38,45.12,28.17,28.17,0,0,1,51.2,73.29Z"/><path class="i" d="M51.2,13.79A31.33,31.33,0,1,0,82.54,45.12,31.33,31.33,0,0,0,51.2,13.79Zm0,59.5A28.17,28.17,0,1,1,79.38,45.12,28.17,28.17,0,0,1,51.2,73.29Z"/><path class="j" d="M51.2,15.65A29.47,29.47,0,1,0,80.67,45.12,29.47,29.47,0,0,0,51.2,15.65Zm0,57.64A28.17,28.17,0,1,1,79.38,45.12,28.17,28.17,0,0,1,51.2,73.29Z"/><circle class="k" cx="51.2" cy="45.12" r="28.17"/><path class="h" d="M12.05,68.38H27.7a0,0,0,0,1,0,0v49.45a1.2,1.2,0,0,1-1.2,1.2H13.25a1.2,1.2,0,0,1-1.2-1.2V68.38a0,0,0,0,1,0,0Z" transform="translate(54.13 4.25) rotate(32.93)"/></svg>