<svg xmlns="http://www.w3.org/2000/svg" viewBox="0 0 170 139.55"><defs><style>.a{fill:#333;}.b{fill:#4d4d4d;}.c{fill:#fff;}.d{fill:#7dc8ff;}.e{fill:#ccc;}.f{fill:#ff9187;}.g{fill:#2d74a8;}.h{fill:#212121;}.h,.i,.j{opacity:0.75;}.i{fill:#666;}.j{fill:#ffd845;}.k{fill:#f2f2f2;stroke:#666;stroke-miterlimit:10;stroke-width:0.05px;}</style></defs><title>Сайт под ключ</title><rect class="a" x="62.98" y="107.03" width="44.05" height="25.11"/><rect class="b" width="170" height="107.03" rx="1" ry="1"/><rect class="c" x="4.64" y="4.64" width="160.35" height="90.03"/><rect class="d" x="9.66" y="30.91" width="149.53" height="18.74"/><rect class="e" x="51.77" y="6.95" width="107.41" height="20.48"/><rect class="f" x="9.66" y="6.95" width="38.25" height="20.48"/><rect class="g" x="105.48" y="52.93" width="53.71" height="26.27"/><rect class="f" x="9.66" y="82.68" width="149.53" height="7.73"/><rect class="h" x="9.66" y="52.93" width="93.5" height="13.14"/><rect class="i" x="9.66" y="74.57" width="93.5" height="4.64"/><rect class="i" x="9.66" y="68.39" width="93.5" height="3.86"/><rect class="b" x="46.75" y="132.14" width="76.5" height="7.41"/><circle class="j" cx="84.81" cy="68.39" r="61.56"/><path class="k" d="M95,32.88A23.69,23.69,0,0,0,74.49,68.49L50.12,100.16v3.56l3.81,4h5.53l5.38-6.67V97l4.39,0,0-4.86,4.9,0,0-4.76,6.2,0,6.33-8.67A23.71,23.71,0,1,0,95,32.88ZM54.53,103.61l0-4.27L74.19,73.81v4.35Zm48.88-48.8a5,5,0,1,1,5-5A5,5,0,0,1,103.42,54.81Z"/></svg>