<svg xmlns="http://www.w3.org/2000/svg" viewBox="0 0 170.06 138.04"><defs><style>.a{fill:#333;}.b{fill:#4d4d4d;}.c{fill:#fff;}.d,.m{fill:#7dc8ff;}.e,.o{fill:#ccc;}.f,.n{fill:#ff9187;}.g,.l{fill:#2d74a8;}.h{fill:#212121;}.i{fill:#666;}.j{fill:#ffd845;}.j,.k,.l,.m,.n,.o{stroke:#666;stroke-miterlimit:10;stroke-width:0.05px;}.k{fill:#339982;}</style></defs><title>Веб-Дизайн</title><rect class="a" x="68.83" y="92.12" width="38.61" height="23.71"/><rect class="b" x="13.63" width="149.02" height="93.82" rx="1" ry="1"/><rect class="c" x="17.69" y="4.06" width="140.55" height="78.91"/><rect class="d" x="17.69" y="27.09" width="135.47" height="16.43"/><rect class="e" x="87.97" y="6.1" width="62.07" height="17.95"/><rect class="f" x="22.1" y="6.1" width="65.87" height="17.95"/><rect class="g" x="90.57" y="46.4" width="44.97" height="23.03" rx="3.72" ry="3.72"/><rect class="f" x="38.73" y="72.48" width="65.76" height="6.77"/><rect class="h" x="24.05" y="46.4" width="73.95" height="11.52"/><rect class="i" x="21.14" y="64.42" width="57.53" height="4.06"/><rect class="b" x="54.61" y="115.83" width="67.06" height="5.42"/><rect class="j" x="137.47" y="49.95" width="18.99" height="87.32" transform="translate(38 -42.36) rotate(18.8)"/><path class="k" d="M14.08,52.05,1.31,55,1,53.62l12.77-3-.89-3.82a2.47,2.47,0,0,0-3-1.85l-7.73,1.8-.23.05a2.48,2.48,0,0,0-1.85,3l14,59.73,12.77-3Z"/><polygon class="l" points="14.04 109.53 23.53 121.03 26.82 106.55 14.04 109.53"/><path class="j" d="M10,45a4.49,4.49,0,0,0-1.83-.64L3.25,45.4A3.43,3.43,0,0,0,2,46.81l.18,0L9.89,45Z"/><polygon class="j" points="1.31 55.03 14.08 52.05 14.08 52.05 15.06 52.91 18.85 67.69 18.52 70.3 19.09 72.71 20.59 70.65 15.6 51.52 13.76 50.64 13.75 50.64 0.98 53.62 1.31 55.03"/><polygon class="m" points="145.14 72.11 139.58 68.32 139.58 68.31 139.56 68.3 103.62 121.03 109.03 124.72 145.14 72.11"/><path class="n" d="M152.66,66.88,147,63a3.09,3.09,0,0,0-4.3.81l-3.07,4.5h0l5.56,3.79,5.25,3.58h0l3.08-4.51A3.09,3.09,0,0,0,152.66,66.88Z"/><polygon class="o" points="109.03 124.72 103.62 121.03 101.36 135.82 114.46 128.42 109.03 124.72 109.03 124.72"/><polygon class="l" points="109.03 124.72 109.03 124.72 114.46 128.42 150.4 75.69 145.14 72.11 109.03 124.72"/></svg>