<svg xmlns="http://www.w3.org/2000/svg" width="40" height="39" viewBox="0 0 40 39">
  <metadata><?xpacket begin="﻿" id="W5M0MpCehiHzreSzNTczkc9d"?>
<x:xmpmeta xmlns:x="adobe:ns:meta/" x:xmptk="Adobe XMP Core 5.6-c138 79.159824, 2016/09/14-01:09:01        ">
   <rdf:RDF xmlns:rdf="http://www.w3.org/1999/02/22-rdf-syntax-ns#">
      <rdf:Description rdf:about=""/>
   </rdf:RDF>
</x:xmpmeta>
                                                                                                    
                                                                                                    
                                                                                                    
                                                                                                    
                                                                                                    
                                                                                                    
                                                                                                    
                                                                                                    
                                                                                                    
                                                                                                    
                                                                                                    
                                                                                                    
                                                                                                    
                                                                                                    
                                                                                                    
                                                                                                    
                                                                                                    
                                                                                                    
                                                                                                    
                                                                                                    
                           
<?xpacket end="w"?></metadata>
<defs>
    <style>
      .cls-1 {
        fill: #fed136;
        fill-rule: evenodd;
      }
    </style>
  </defs>
  <path id="Icon-Basket" class="cls-1" d="M3.508,16.331h33.04L35.277,38.358H4.779ZM4.2,9.448H35.86a3.442,3.442,0,1,1,0,6.883H4.2A3.442,3.442,0,1,1,4.2,9.448ZM2.132,16.331H37.925v1.376H2.132V16.331Zm17.9,6.884A1.376,1.376,0,0,1,21.4,24.591v8.26a1.377,1.377,0,1,1-2.753,0v-8.26A1.376,1.376,0,0,1,20.028,23.215Zm8.26,0a1.376,1.376,0,0,1,1.377,1.376v8.26a1.377,1.377,0,1,1-2.753,0v-8.26A1.376,1.376,0,0,1,28.288,23.215Zm-16.52,0a1.376,1.376,0,0,1,1.377,1.376v8.26a1.377,1.377,0,1,1-2.753,0v-8.26A1.376,1.376,0,0,1,11.768,23.215ZM23.814,0.641a2.753,2.753,0,0,1,3.761,1.008L31.705,8.8a2.753,2.753,0,1,1-4.769,2.753L22.806,4.4A2.753,2.753,0,0,1,23.814.641Zm-7.572,0a2.753,2.753,0,0,0-3.761,1.008L8.351,8.8a2.753,2.753,0,1,0,4.769,2.753L17.25,4.4A2.753,2.753,0,0,0,16.242.641Z"/>
</svg>
