<svg xmlns="http://www.w3.org/2000/svg" width="29" height="38" viewBox="0 0 29 38">
  <metadata><?xpacket begin="﻿" id="W5M0MpCehiHzreSzNTczkc9d"?>
<x:xmpmeta xmlns:x="adobe:ns:meta/" x:xmptk="Adobe XMP Core 5.6-c138 79.159824, 2016/09/14-01:09:01        ">
   <rdf:RDF xmlns:rdf="http://www.w3.org/1999/02/22-rdf-syntax-ns#">
      <rdf:Description rdf:about=""/>
   </rdf:RDF>
</x:xmpmeta>
                                                                                                    
                                                                                                    
                                                                                                    
                                                                                                    
                                                                                                    
                                                                                                    
                                                                                                    
                                                                                                    
                                                                                                    
                                                                                                    
                                                                                                    
                                                                                                    
                                                                                                    
                                                                                                    
                                                                                                    
                                                                                                    
                                                                                                    
                                                                                                    
                                                                                                    
                                                                                                    
                           
<?xpacket end="w"?></metadata>
<defs>
    <style>
      .cls-1 {
        fill: #fed136;
        fill-rule: evenodd;
      }
    </style>
  </defs>
  <path id="Icon-Locked" class="cls-1" d="M14.685,0.633c5.155,0,9.333,3.656,9.333,8.167V28.632c0,4.51-4.178,8.166-9.333,8.166s-9.333-3.656-9.333-8.166V8.8C5.352,4.289,9.53.633,14.685,0.633Zm0,4.667c2.577,0,4.666,1.567,4.666,3.5v8.166c0,1.934-2.089,3.5-4.666,3.5s-4.667-1.567-4.667-3.5V8.8C10.018,6.867,12.108,5.3,14.685,5.3ZM4.185,18.132h21a3.5,3.5,0,0,1,3.5,3.5V34.465a3.5,3.5,0,0,1-3.5,3.5h-21a3.5,3.5,0,0,1-3.5-3.5V21.633A3.5,3.5,0,0,1,4.185,18.132Zm10.5,5.833A2.333,2.333,0,0,1,17.018,26.3v5.833a2.333,2.333,0,1,1-4.666,0V26.3A2.333,2.333,0,0,1,14.685,23.966Zm0-2.333A4.666,4.666,0,1,1,10.018,26.3,4.666,4.666,0,0,1,14.685,21.633Z"/>
</svg>
