<svg xmlns="http://www.w3.org/2000/svg" width="41" height="35" viewBox="0 0 41 35">
  <metadata><?xpacket begin="﻿" id="W5M0MpCehiHzreSzNTczkc9d"?>
<x:xmpmeta xmlns:x="adobe:ns:meta/" x:xmptk="Adobe XMP Core 5.6-c138 79.159824, 2016/09/14-01:09:01        ">
   <rdf:RDF xmlns:rdf="http://www.w3.org/1999/02/22-rdf-syntax-ns#">
      <rdf:Description rdf:about=""/>
   </rdf:RDF>
</x:xmpmeta>
                                                                                                    
                                                                                                    
                                                                                                    
                                                                                                    
                                                                                                    
                                                                                                    
                                                                                                    
                                                                                                    
                                                                                                    
                                                                                                    
                                                                                                    
                                                                                                    
                                                                                                    
                                                                                                    
                                                                                                    
                                                                                                    
                                                                                                    
                                                                                                    
                                                                                                    
                                                                                                    
                           
<?xpacket end="w"?></metadata>
<defs>
    <style>
      .cls-1 {
        fill: #fed136;
        fill-rule: evenodd;
      }
    </style>
  </defs>
  <path id="Icon-Laptop" class="cls-1" d="M7.356,0.9H34.264A4.036,4.036,0,0,1,38.3,4.936v17.49a4.036,4.036,0,0,1-4.036,4.036H7.356A4.036,4.036,0,0,1,3.32,22.426V4.936A4.036,4.036,0,0,1,7.356.9ZM3.32,23.771H7.356v2.691H3.32V23.771Zm30.943,0H38.3v2.691H34.264V23.771ZM7.356,4.936H34.264V29.152H7.356V4.936ZM3.32,29.152H38.3a2.691,2.691,0,0,1,2.691,2.691c0,1.486-2.55,2.691-4.036,2.691H4.666c-1.486,0-4.036-1.2-4.036-2.691A2.691,2.691,0,0,1,3.32,29.152Zm13.454,2.691h8.072a1.2,1.2,0,0,1,1.345.672,1.2,1.2,0,0,1-1.345.673H16.774a1.2,1.2,0,0,1-1.345-.673A1.2,1.2,0,0,1,16.774,31.843Zm-5-15.159,1.894-1.9a1.336,1.336,0,0,1,1.894,0L20.3,19.538a1.349,1.349,0,0,1,0,1.9l-1.894,1.9a1.335,1.335,0,0,1-1.894,0l-4.735-4.756A1.349,1.349,0,0,1,11.777,16.684ZM27.944,9.237l1.894,1.9a1.35,1.35,0,0,1,0,1.9L19.421,23.506a1.335,1.335,0,0,1-1.894,0l-1.894-1.9a1.35,1.35,0,0,1,0-1.9L26.05,9.237A1.335,1.335,0,0,1,27.944,9.237Z"/>
</svg>
