<svg xmlns="http://www.w3.org/2000/svg" xmlns:xlink="http://www.w3.org/1999/xlink" width="23" height="20" viewBox="0 0 23 20">
  <metadata><?xpacket begin="﻿" id="W5M0MpCehiHzreSzNTczkc9d"?>
<x:xmpmeta xmlns:x="adobe:ns:meta/" x:xmptk="Adobe XMP Core 5.6-c138 79.159824, 2016/09/14-01:09:01        ">
   <rdf:RDF xmlns:rdf="http://www.w3.org/1999/02/22-rdf-syntax-ns#">
      <rdf:Description rdf:about=""/>
   </rdf:RDF>
</x:xmpmeta>
                                                                                                    
                                                                                                    
                                                                                                    
                                                                                                    
                                                                                                    
                                                                                                    
                                                                                                    
                                                                                                    
                                                                                                    
                                                                                                    
                                                                                                    
                                                                                                    
                                                                                                    
                                                                                                    
                                                                                                    
                                                                                                    
                                                                                                    
                                                                                                    
                                                                                                    
                                                                                                    
                           
<?xpacket end="w"?></metadata>
<defs>
    <style>
      .cls-1 {
        fill: #614261;
        fill-rule: evenodd;
        filter: url(#filter);
      }
    </style>
    <filter id="filter" x="0.844" y="0.031" width="22.156" height="19.969" filterUnits="userSpaceOnUse">
      <feOffset result="offset" dx="0.707" dy="0.707" in="SourceAlpha"/>
      <feGaussianBlur result="blur"/>
      <feFlood result="flood" flood-opacity="0.25"/>
      <feComposite result="composite" operator="in" in2="blur"/>
      <feBlend result="blend" in="SourceGraphic"/>
      <feFlood result="flood-2" flood-color="#fff"/>
      <feComposite result="composite-2" operator="in" in2="SourceGraphic"/>
      <feBlend result="blend-2" in2="blend"/>
    </filter>
  </defs>
  <path id="Apartment_Building" data-name="Apartment Building" class="cls-1" d="M1.981,6.814h5.66a1.131,1.131,0,0,1,1.132,1.13v9.037A1.13,1.13,0,0,1,7.641,18.11H1.981A1.13,1.13,0,0,1,.849,16.981V7.944A1.131,1.131,0,0,1,1.981,6.814Zm0,1.13H3.113V10.2H1.981V7.944Zm2.264,0H5.377V10.2H4.245V7.944Zm2.264,0H7.641V10.2H6.509V7.944ZM1.981,11.333H3.113v2.259H1.981V11.333Zm2.264,0H5.377v2.259H4.245V11.333Zm2.264,0H7.641v2.259H6.509V11.333ZM1.981,14.722H3.113V16.98H1.981V14.722Zm4.528,0H7.641V16.98H6.509V14.722ZM11.038,0.036h8.986a1.193,1.193,0,0,1,1.2,1.13V16.981S20.79,18.11,20.165,18.11H11.038S9.905,17.6,9.905,16.981V1.167A1.131,1.131,0,0,1,11.038.036Zm0,4.519H13.3V6.814H11.038V4.555Zm0,3.389H13.3V10.2H11.038V7.944Zm0,3.389H13.3v2.259H11.038V11.333Zm0,3.389H13.3V16.98H11.038V14.722ZM17.83,4.555h2.264V6.814H17.83V4.555Zm0,3.389h2.264V10.2H17.83V7.944Zm0,3.389h2.264v2.259H17.83V11.333Zm0,3.389h2.264V16.98H17.83V14.722ZM11.038,1.166H13.3V3.425H11.038V1.166Zm6.792,0h2.264V3.425H17.83V1.166Zm-3.4,3.389H16.7V6.814H14.434V4.555Zm0,3.389H16.7V10.2H14.434V7.944Zm0,3.389H16.7v2.259H14.434V11.333Zm0-10.167H16.7V3.425H14.434V1.166Z"/>
</svg>
