<svg xmlns="http://www.w3.org/2000/svg" width="32" height="32" viewBox="0 0 32 32">
  <metadata><?xpacket begin="﻿" id="W5M0MpCehiHzreSzNTczkc9d"?>
<x:xmpmeta xmlns:x="adobe:ns:meta/" x:xmptk="Adobe XMP Core 5.6-c138 79.159824, 2016/09/14-01:09:01        ">
   <rdf:RDF xmlns:rdf="http://www.w3.org/1999/02/22-rdf-syntax-ns#">
      <rdf:Description rdf:about=""/>
   </rdf:RDF>
</x:xmpmeta>
                                                                                                    
                                                                                                    
                                                                                                    
                                                                                                    
                                                                                                    
                                                                                                    
                                                                                                    
                                                                                                    
                                                                                                    
                                                                                                    
                                                                                                    
                                                                                                    
                                                                                                    
                                                                                                    
                                                                                                    
                                                                                                    
                                                                                                    
                                                                                                    
                                                                                                    
                                                                                                    
                           
<?xpacket end="w"?></metadata>
<defs>
    <style>
      .cls-1 {
        fill: #0d0d0d;
        fill-rule: evenodd;
      }
    </style>
  </defs>
  <path id="params" class="cls-1" d="M8,6.021V3A3,3,0,0,0,2,3V6.021a4.955,4.955,0,0,0,0,7.955V29a3,3,0,1,0,6,0V13.976A4.955,4.955,0,0,0,8,6.021ZM4,3A1,1,0,0,1,6,3V5.1a5.086,5.086,0,0,0-2,0V3ZM6,29a1,1,0,0,1-2,0V14.9a4.967,4.967,0,0,0,2,0V29ZM7.865,10.838c-0.016.053-.03,0.106-0.049,0.159a2.941,2.941,0,0,1-.378.736c0,0.006-.01.009-0.014,0.016a2.99,2.99,0,0,1-.616.627l-0.01.008a2.968,2.968,0,0,1-.8.43A2.934,2.934,0,0,1,5,13a2.934,2.934,0,0,1-1-.185,2.97,2.97,0,0,1-.8-0.43l-0.01-.008a2.99,2.99,0,0,1-.616-0.627c0-.006-0.01-0.01-0.014-0.016A2.945,2.945,0,0,1,2.184,11c-0.019-.052-0.033-0.106-0.049-0.159a2.685,2.685,0,0,1,0-1.681C2.15,9.1,2.165,9.052,2.184,9a3,3,0,0,1,.378-0.738c0-.006.01-0.01,0.014-0.016a3.028,3.028,0,0,1,.616-0.627L3.2,7.613A3.061,3.061,0,0,1,4,7.183,2.972,2.972,0,0,1,5,7a2.972,2.972,0,0,1,1,.184,3.059,3.059,0,0,1,.8.43l0.01,0.008a3.028,3.028,0,0,1,.616.627c0,0.005.01,0.009,0.014,0.016A2.991,2.991,0,0,1,7.816,9c0.019,0.051.033,0.1,0.049,0.156A2.687,2.687,0,0,1,7.865,10.838ZM30,6.021V3a3,3,0,0,0-6,0V6.021a4.955,4.955,0,0,0,0,7.955V29a3,3,0,1,0,6,0V13.976A4.955,4.955,0,0,0,30,6.021ZM26,3a1,1,0,0,1,2,0V5.1a5.085,5.085,0,0,0-2,0V3Zm2,26a1,1,0,0,1-2,0V14.9a4.967,4.967,0,0,0,2,0V29Zm1.865-18.161c-0.016.053-.03,0.106-0.049,0.159a2.95,2.95,0,0,1-.378.736c0,0.006-.01.009-0.014,0.016a2.988,2.988,0,0,1-.616.627l-0.01.008a2.97,2.97,0,0,1-.8.43,2.791,2.791,0,0,1-2,0,2.969,2.969,0,0,1-.8-0.43l-0.01-.008a2.988,2.988,0,0,1-.616-0.627c0-.006-0.01-0.01-0.014-0.016A2.94,2.94,0,0,1,24.184,11c-0.019-.052-0.033-0.106-0.049-0.159a2.687,2.687,0,0,1,0-1.681C24.15,9.1,24.165,9.052,24.184,9a2.99,2.99,0,0,1,.378-0.738c0-.006.01-0.01,0.014-0.016a3.026,3.026,0,0,1,.616-0.627l0.01-.008a3.06,3.06,0,0,1,.8-0.43,2.813,2.813,0,0,1,2,0,3.061,3.061,0,0,1,.8.43l0.01,0.008a3.027,3.027,0,0,1,.616.627c0,0.005.01,0.009,0.014,0.016A3,3,0,0,1,29.816,9c0.018,0.051.033,0.1,0.049,0.156A2.687,2.687,0,0,1,29.865,10.838ZM19,18.021V3a3,3,0,0,0-6,0V18.021a4.956,4.956,0,0,0,0,7.955V29a3,3,0,1,0,6,0V25.976A4.956,4.956,0,0,0,19,18.021ZM15,3a1,1,0,0,1,2,0V17.1a5.046,5.046,0,0,0-2,0V3Zm2,26a1,1,0,0,1-2,0V26.9a4.973,4.973,0,0,0,2,0V29Zm1.865-6.16c-0.016.053-.03,0.1-0.049,0.158a2.946,2.946,0,0,1-.378.736c0,0.006-.01.01-0.014,0.016a3.01,3.01,0,0,1-.616.627l-0.01.008a2.973,2.973,0,0,1-.8.429,2.781,2.781,0,0,1-2,0,2.971,2.971,0,0,1-.8-0.429l-0.01-.008a3.007,3.007,0,0,1-.616-0.627c0-.006-0.01-0.01-0.014-0.016A2.943,2.943,0,0,1,13.184,23c-0.019-.053-0.033-0.1-0.049-0.158a2.692,2.692,0,0,1,0-1.682c0.016-.052.03-0.105,0.049-0.156a3.014,3.014,0,0,1,.378-0.739c0-.005.01-0.009,0.014-0.015a3.027,3.027,0,0,1,.616-0.627l0.01-.008a3.06,3.06,0,0,1,.8-0.43,2.814,2.814,0,0,1,2,0,3.061,3.061,0,0,1,.8.43l0.01,0.008a3.03,3.03,0,0,1,.616.627c0,0.005.01,0.009,0.014,0.015a3.018,3.018,0,0,1,.378.739c0.018,0.05.033,0.1,0.049,0.156A2.694,2.694,0,0,1,18.865,22.839Z"/>
</svg>
