<svg xmlns="http://www.w3.org/2000/svg" width="18" height="18" viewBox="0 0 18 18">
  <metadata><?xpacket begin="﻿" id="W5M0MpCehiHzreSzNTczkc9d"?>
<x:xmpmeta xmlns:x="adobe:ns:meta/" x:xmptk="Adobe XMP Core 5.6-c138 79.159824, 2016/09/14-01:09:01        ">
   <rdf:RDF xmlns:rdf="http://www.w3.org/1999/02/22-rdf-syntax-ns#">
      <rdf:Description rdf:about=""/>
   </rdf:RDF>
</x:xmpmeta>
                                                                                                    
                                                                                                    
                                                                                                    
                                                                                                    
                                                                                                    
                                                                                                    
                                                                                                    
                                                                                                    
                                                                                                    
                                                                                                    
                                                                                                    
                                                                                                    
                                                                                                    
                                                                                                    
                                                                                                    
                                                                                                    
                                                                                                    
                                                                                                    
                                                                                                    
                                                                                                    
                           
<?xpacket end="w"?></metadata>
<defs>
    <style>
      .cls-1 {
        fill: gray;
        fill-rule: evenodd;
      }
    </style>
  </defs>
  <path id="pen" class="cls-1" d="M16.5,1.481A4.78,4.78,0,0,0,13.171.037a3.666,3.666,0,0,0-2.615,1.05L7.831,3.833a0.326,0.326,0,0,0-.026.022s-0.007.01-.012,0.014v0L2.01,9.7a2.253,2.253,0,0,0-.567.955L0.127,15.418A3.869,3.869,0,0,0,.04,16,1.961,1.961,0,0,0,2,17.957a4.072,4.072,0,0,0,.648-0.1L7.4,16.6a2.254,2.254,0,0,0,.955-0.57L16.9,7.421C18.455,5.863,18.28,3.256,16.5,1.481ZM9.008,13.362a4.555,4.555,0,0,0-.4-1.471L13.9,6.6a2.727,2.727,0,0,1-.552,2.8s-0.01.008-.014,0.012l0.007,0.008L9.013,13.78C9.014,13.64,9.021,13.5,9.008,13.362ZM8.324,11.38a5.03,5.03,0,0,0-.74-0.967,4.993,4.993,0,0,0-1.145-.837l5.338-5.337a3.9,3.9,0,0,1,1.175.805,3.86,3.86,0,0,1,.717.991ZM5.912,9.312a4.449,4.449,0,0,0-1.606-.335L8.62,4.63a2.681,2.681,0,0,1,2.569-.595ZM2.374,16.765a2.746,2.746,0,0,1-.38.071A0.842,0.842,0,0,1,1.16,16a2.865,2.865,0,0,1,.057-0.315l0.589-2.136a2.554,2.554,0,0,1,1.87.773,2.556,2.556,0,0,1,.78,1.9Zm2.635-.691a3.123,3.123,0,0,0-.936-2.149,3.183,3.183,0,0,0-2.109-.951l0.558-2.02a1.12,1.12,0,0,1,.219-0.385,3.206,3.206,0,0,1,4.051.635,3.143,3.143,0,0,1,.488,4.237,1.118,1.118,0,0,1-.2.088Zm11.1-9.446-0.943.951c0-.126.015-0.248,0-0.378a4.818,4.818,0,0,0-1.424-2.95,4.783,4.783,0,0,0-3.32-1.441l0.928-.933a2.542,2.542,0,0,1,1.819-.722A3.661,3.661,0,0,1,15.71,2.274a3.686,3.686,0,0,1,1.123,2.333A2.563,2.563,0,0,1,16.108,6.628Z"/>
</svg>
