<svg xmlns="http://www.w3.org/2000/svg" width="32" height="28" viewBox="0 0 32 28">
  <metadata><?xpacket begin="﻿" id="W5M0MpCehiHzreSzNTczkc9d"?>
<x:xmpmeta xmlns:x="adobe:ns:meta/" x:xmptk="Adobe XMP Core 5.6-c138 79.159824, 2016/09/14-01:09:01        ">
   <rdf:RDF xmlns:rdf="http://www.w3.org/1999/02/22-rdf-syntax-ns#">
      <rdf:Description rdf:about=""/>
   </rdf:RDF>
</x:xmpmeta>
                                                                                                    
                                                                                                    
                                                                                                    
                                                                                                    
                                                                                                    
                                                                                                    
                                                                                                    
                                                                                                    
                                                                                                    
                                                                                                    
                                                                                                    
                                                                                                    
                                                                                                    
                                                                                                    
                                                                                                    
                                                                                                    
                                                                                                    
                                                                                                    
                                                                                                    
                                                                                                    
                           
<?xpacket end="w"?></metadata>
<defs>
    <style>
      .cls-1 {
        fill: #f39c12;
        fill-rule: evenodd;
      }
    </style>
  </defs>
  <path id="stack" class="cls-1" d="M31.924,16.454l-4-15.005A2.005,2.005,0,0,0,26,0H6a2.005,2.005,0,0,0-1.922,1.45l-4,15.005A2.039,2.039,0,0,0,0,17v7a4,4,0,0,0,4,4H28a4,4,0,0,0,4-4V17A2.037,2.037,0,0,0,31.924,16.454ZM30,24a2,2,0,0,1-2,2H4a2,2,0,0,1-2-2V17L6,2H26l4,15v7ZM23.742,4H8.258a1,1,0,0,0-.967.743l-3.445,12A1,1,0,0,0,4.812,18H9.381l1.447,2.9A2,2,0,0,0,12.617,22h6.766a2,2,0,0,0,1.789-1.1L22.619,18h4.568a1,1,0,0,0,.967-1.256l-3.445-12A1,1,0,0,0,23.742,4Zm0.539,12H22.619a1.989,1.989,0,0,0-1.789,1.1L19.383,20H12.617L11.17,17.1A1.989,1.989,0,0,0,9.381,16H5.334L8.258,5H23.742l2.924,11H24.281Z"/>
</svg>
