<svg xmlns="http://www.w3.org/2000/svg" width="18" height="18" viewBox="0 0 18 18">
  <metadata><?xpacket begin="﻿" id="W5M0MpCehiHzreSzNTczkc9d"?>
<x:xmpmeta xmlns:x="adobe:ns:meta/" x:xmptk="Adobe XMP Core 5.6-c138 79.159824, 2016/09/14-01:09:01        ">
   <rdf:RDF xmlns:rdf="http://www.w3.org/1999/02/22-rdf-syntax-ns#">
      <rdf:Description rdf:about=""/>
   </rdf:RDF>
</x:xmpmeta>
                                                                                                    
                                                                                                    
                                                                                                    
                                                                                                    
                                                                                                    
                                                                                                    
                                                                                                    
                                                                                                    
                                                                                                    
                                                                                                    
                                                                                                    
                                                                                                    
                                                                                                    
                                                                                                    
                                                                                                    
                                                                                                    
                                                                                                    
                                                                                                    
                                                                                                    
                                                                                                    
                           
<?xpacket end="w"?></metadata>
<defs>
    <style>
      .cls-1 {
        fill: gray;
        fill-rule: evenodd;
      }
    </style>
  </defs>
  <path id="user" class="cls-1" d="M16.857,15.411a15.192,15.192,0,0,0-4.822-1.923A11.814,11.814,0,0,0,14.017,9.24a8.927,8.927,0,0,0-1.322-6.792A4.548,4.548,0,0,0,9,.677,4.548,4.548,0,0,0,5.306,2.448,8.927,8.927,0,0,0,3.983,9.24a11.812,11.812,0,0,0,1.981,4.247,15.19,15.19,0,0,0-4.822,1.923,1.04,1.04,0,0,0,.577,1.905H16.28A1.04,1.04,0,0,0,16.857,15.411Zm-5.638-2.567-0.17.216a2.5,2.5,0,0,1-4.1,0l-0.17-.216A8.888,8.888,0,0,1,4.924,6.266C5.208,4.041,6.483,1.716,9,1.716s3.792,2.325,4.076,4.549A8.892,8.892,0,0,1,11.219,12.844Zm-9.5,3.434a14.071,14.071,0,0,1,4.465-1.772l1.292-.281a2.606,2.606,0,0,0,3.047,0l1.292,0.281a14.092,14.092,0,0,1,4.465,1.772H1.72Z"/>
</svg>
